<?xml version="1.0" standalone="no"?>
<!DOCTYPE svg PUBLIC "-//W3C//DTD SVG 20010904//EN"
 "http://www.w3.org/TR/2001/REC-SVG-20010904/DTD/svg10.dtd">
<svg version="1.0" xmlns="http://www.w3.org/2000/svg"
 width="300.000000pt" height="300.000000pt" viewBox="0 0 300.000000 300.000000"
 preserveAspectRatio="xMidYMid meet">
<metadata>
Created by potrace 1.10, written by Peter Selinger 2001-2011
</metadata>
<g transform="translate(0.000000,300.000000) scale(0.100000,-0.100000)"
fill="#1a4eff" stroke="none">
<path d="M1385 2500 c-236 -27 -448 -131 -610 -302 -168 -174 -252 -357 -275
-596 -40 -424 188 -817 583 -1002 144 -67 227 -84 417 -85 142 0 177 4 250 23
354 96 638 382 725 727 52 210 30 457 -59 659 -84 189 -269 379 -466 478 -165
82 -380 120 -565 98z m269 -155 c328 -57 589 -300 677 -630 17 -62 22 -109 22
-205 0 -144 -21 -237 -78 -359 -93 -195 -271 -361 -466 -435 -183 -69 -396
-75 -571 -16 -125 42 -230 103 -320 188 -90 85 -139 151 -189 255 -62 130 -82
220 -82 372 0 141 17 226 66 338 l26 57 602 -2 602 -3 19 -26 c20 -27 20 -27
-11 -205 -38 -215 -64 -280 -146 -359 -209 -204 -549 -167 -712 77 -61 93
-102 111 -150 66 -37 -35 -30 -74 26 -154 295 -420 932 -338 1084 141 9 28 29
127 46 220 37 217 34 248 -38 328 -58 64 -31 62 -651 67 l-564 5 44 44 c205
199 482 285 764 236z"/>
<path d="M1127 1740 c-46 -36 -45 -111 2 -147 25 -20 85 -15 115 8 37 29 37
99 0 134 -33 31 -82 33 -117 5z"/>
<path d="M1655 1738 c-15 -14 -28 -38 -31 -59 -13 -82 92 -134 151 -74 28 27
34 88 12 116 -33 43 -93 50 -132 17z"/>
</g>
</svg>
