 <svg  version="1.0" xmlns="http://www.w3.org/2000/svg"  width="300.000000pt" height="204.000000pt" viewBox="0 0 300.000000 204.000000"  preserveAspectRatio="xMidYMid meet">  <g transform="translate(0.000000,204.000000) scale(0.100000,-0.100000)" fill="#284df5" stroke="none"> <path d="M2587 2033 c-18 -17 -3 -32 43 -42 114 -24 240 -115 307 -219 19 -29 40 -51 46 -49 17 5 22 284 6 303 -9 11 -52 14 -204 14 -105 0 -195 -3 -198 -7z"/> <path d="M10 1775 l0 -255 315 0 315 0 0 -755 0 -755 260 0 260 0 0 756 0 755 188 -3 c179 -3 190 -4 244 -30 119 -56 210 -177 224 -298 l6 -58 262 1 c243 2 263 3 296 23 52 30 65 64 65 174 0 159 -22 180 -205 191 -158 10 -238 44 -322 138 -64 71 -90 143 -96 269 l-4 102 -904 0 -904 0 0 -255z"/> <path d="M2945 1063 c-65 -99 -157 -162 -282 -194 -29 -7 -53 -18 -53 -25 0 -7 28 -31 63 -55 34 -23 73 -50 86 -61 41 -31 107 -131 158 -237 77 -161 78 -157 78 249 0 309 -2 345 -16 348 -9 2 -24 -10 -34 -25z"/> <path d="M1820 331 l0 -321 324 0 325 0 -76 158 c-41 86 -91 191 -111 232 -60 126 -107 193 -154 220 -39 22 -57 25 -175 28 l-133 4 0 -321z"/> </g> </svg> 