<?xml version="1.0" encoding="UTF-8"?>
<svg id="Layer_2" data-name="Layer 2" xmlns="http://www.w3.org/2000/svg" viewBox="0 0 518.99 94.18">
  <defs>
    <style>
      .cls-1 {
        letter-spacing: 0em;
      }

      .cls-2 {
        letter-spacing: -.02em;
      }

      .cls-3 {
        font-family: Poppins-ExtraBold, Poppins;
        font-size: 52.6px;
        font-weight: 700;
      }

      .cls-4 {
        letter-spacing: -.11em;
      }

      .cls-5 {
        letter-spacing: 0em;
      }

      .cls-6 {
        font-family: SFProDisplay-Regular, 'SF Pro Display';
        font-size: 19.65px;
      }

      .cls-7 {
        fill: #6356e5;
        stroke-width: 0px;
      }
    </style>
  </defs>
  <g id="Layer_1-2" data-name="Layer 1">
    <text class="cls-3" transform="translate(119.31 49.43)"><tspan x="0" y="0">Trading Rehab</tspan></text>
    <text class="cls-6" transform="translate(123.29 85.84)"><tspan x="0" y="0">Whe</tspan><tspan class="cls-2" x="38.81" y="0">r</tspan><tspan class="cls-1" x="44.38" y="0">e Disciplined </tspan><tspan class="cls-4" x="152.95" y="0">T</tspan><tspan class="cls-5" x="162.16" y="0">r</tspan><tspan x="168.02" y="0">ading Begins</tspan></text>
    <g>
      <g>
        <path class="cls-7" d="m2.63,30.88c-1.45,0-2.63-1.18-2.63-2.63s1.18-2.63,2.63-2.63,2.63,1.18,2.63,2.63-1.18,2.63-2.63,2.63Z"/>
        <path class="cls-7" d="m10.67,20.45c-2.33,0-4.22-1.89-4.22-4.22s1.89-4.22,4.22-4.22,4.22,1.89,4.22,4.22-1.89,4.22-4.22,4.22Z"/>
        <path class="cls-7" d="m10.67,20.45c-2.33,0-4.22-1.89-4.22-4.22s1.89-4.22,4.22-4.22,4.22,1.89,4.22,4.22-1.89,4.22-4.22,4.22Z"/>
        <path class="cls-7" d="m22.69,13.29c-2.82,0-5.1-2.28-5.1-5.1s2.28-5.1,5.1-5.1,5.1,2.28,5.1,5.1-2.28,5.1-5.1,5.1Z"/>
        <path class="cls-7" d="m22.69,13.29c-2.82,0-5.1-2.28-5.1-5.1s2.28-5.1,5.1-5.1,5.1,2.28,5.1,5.1-2.28,5.1-5.1,5.1Z"/>
        <circle class="cls-7" cx="36.87" cy="5.38" r="5.38"/>
        <circle class="cls-7" cx="36.87" cy="5.38" r="5.38"/>
        <path class="cls-7" d="m51.06,13.3c-2.82,0-5.11-2.29-5.11-5.11s2.29-5.11,5.11-5.11,5.11,2.29,5.11,5.11-2.29,5.11-5.11,5.11Z"/>
        <path class="cls-7" d="m51.06,13.3c-2.82,0-5.11-2.29-5.11-5.11s2.29-5.11,5.11-5.11,5.11,2.29,5.11,5.11-2.29,5.11-5.11,5.11Z"/>
        <circle class="cls-7" cx="63.07" cy="16.23" r="4.23"/>
        <circle class="cls-7" cx="63.07" cy="16.23" r="4.23"/>
        <path class="cls-7" d="m71.12,30.89c-1.46,0-2.64-1.18-2.64-2.64s1.18-2.64,2.64-2.64,2.64,1.18,2.64,2.64-1.18,2.64-2.64,2.64Z"/>
        <path class="cls-7" d="m71.12,30.89c-1.46,0-2.64-1.18-2.64-2.64s1.18-2.64,2.64-2.64,2.64,1.18,2.64,2.64-1.18,2.64-2.64,2.64Z"/>
      </g>
      <g>
        <path class="cls-7" d="m64.68,5.69c-1.45,0-2.63-1.18-2.63-2.63s1.18-2.63,2.63-2.63,2.63,1.18,2.63,2.63-1.18,2.63-2.63,2.63Z"/>
        <path class="cls-7" d="m76.7,15.32c-2.33,0-4.22-1.89-4.22-4.22s1.89-4.22,4.22-4.22,4.22,1.89,4.22,4.22-1.89,4.22-4.22,4.22Z"/>
        <path class="cls-7" d="m76.7,15.32c-2.33,0-4.22-1.89-4.22-4.22s1.89-4.22,4.22-4.22,4.22,1.89,4.22,4.22-1.89,4.22-4.22,4.22Z"/>
        <path class="cls-7" d="m84.74,28.22c-2.82,0-5.1-2.28-5.1-5.1s2.28-5.1,5.1-5.1,5.1,2.28,5.1,5.1-2.28,5.1-5.1,5.1Z"/>
        <path class="cls-7" d="m84.74,28.22c-2.82,0-5.1-2.28-5.1-5.1s2.28-5.1,5.1-5.1,5.1,2.28,5.1,5.1-2.28,5.1-5.1,5.1Z"/>
        <circle class="cls-7" cx="87.56" cy="37.3" r="5.38"/>
        <circle class="cls-7" cx="87.56" cy="37.3" r="5.38"/>
        <path class="cls-7" d="m84.75,56.59c-2.82,0-5.11-2.29-5.11-5.11s2.29-5.11,5.11-5.11,5.11,2.29,5.11,5.11-2.29,5.11-5.11,5.11Z"/>
        <path class="cls-7" d="m84.75,56.59c-2.82,0-5.11-2.29-5.11-5.11s2.29-5.11,5.11-5.11,5.11,2.29,5.11,5.11-2.29,5.11-5.11,5.11Z"/>
        <path class="cls-7" d="m76.71,67.73c-2.34,0-4.23-1.89-4.23-4.23s1.89-4.23,4.23-4.23,4.23,1.89,4.23,4.23-1.89,4.23-4.23,4.23Z"/>
        <path class="cls-7" d="m76.71,67.73c-2.34,0-4.23-1.89-4.23-4.23s1.89-4.23,4.23-4.23,4.23,1.89,4.23,4.23-1.89,4.23-4.23,4.23Z"/>
        <path class="cls-7" d="m64.69,74.19c-1.46,0-2.64-1.18-2.64-2.64s1.18-2.64,2.64-2.64,2.64,1.18,2.64,2.64-1.18,2.64-2.64,2.64Z"/>
        <path class="cls-7" d="m64.69,74.19c-1.46,0-2.64-1.18-2.64-2.64s1.18-2.64,2.64-2.64,2.64,1.18,2.64,2.64-1.18,2.64-2.64,2.64Z"/>
      </g>
      <g>
        <circle class="cls-7" cx="92.78" cy="63.1" r="2.63"/>
        <path class="cls-7" d="m84.74,79.33c-2.33,0-4.22-1.89-4.22-4.22s1.89-4.22,4.22-4.22,4.22,1.89,4.22,4.22-1.89,4.22-4.22,4.22Z"/>
        <path class="cls-7" d="m84.74,79.33c-2.33,0-4.22-1.89-4.22-4.22s1.89-4.22,4.22-4.22,4.22,1.89,4.22,4.22-1.89,4.22-4.22,4.22Z"/>
        <path class="cls-7" d="m72.73,88.25c-2.82,0-5.1-2.28-5.1-5.1s2.28-5.1,5.1-5.1,5.1,2.28,5.1,5.1-2.28,5.1-5.1,5.1Z"/>
        <path class="cls-7" d="m72.73,88.25c-2.82,0-5.1-2.28-5.1-5.1s2.28-5.1,5.1-5.1,5.1,2.28,5.1,5.1-2.28,5.1-5.1,5.1Z"/>
        <circle class="cls-7" cx="58.54" cy="85.97" r="5.38"/>
        <circle class="cls-7" cx="58.54" cy="85.97" r="5.38"/>
        <path class="cls-7" d="m44.36,88.27c-2.82,0-5.11-2.29-5.11-5.11s2.29-5.11,5.11-5.11,5.11,2.29,5.11,5.11-2.29,5.11-5.11,5.11Z"/>
        <path class="cls-7" d="m44.36,88.27c-2.82,0-5.11-2.29-5.11-5.11s2.29-5.11,5.11-5.11,5.11,2.29,5.11,5.11-2.29,5.11-5.11,5.11Z"/>
        <path class="cls-7" d="m32.34,79.35c-2.34,0-4.23-1.89-4.23-4.23s1.89-4.23,4.23-4.23,4.23,1.89,4.23,4.23-1.89,4.23-4.23,4.23Z"/>
        <path class="cls-7" d="m32.34,79.35c-2.34,0-4.23-1.89-4.23-4.23s1.89-4.23,4.23-4.23,4.23,1.89,4.23,4.23-1.89,4.23-4.23,4.23Z"/>
        <path class="cls-7" d="m24.3,65.75c-1.46,0-2.64-1.18-2.64-2.64s1.18-2.64,2.64-2.64,2.64,1.18,2.64,2.64-1.18,2.64-2.64,2.64Z"/>
        <path class="cls-7" d="m24.3,65.75c-1.46,0-2.64-1.18-2.64-2.64s1.18-2.64,2.64-2.64,2.64,1.18,2.64,2.64-1.18,2.64-2.64,2.64Z"/>
      </g>
      <g>
        <circle class="cls-7" cx="30.73" cy="88.29" r="2.63"/>
        <path class="cls-7" d="m18.71,84.46c-2.33,0-4.22-1.89-4.22-4.22s1.89-4.22,4.22-4.22,4.22,1.89,4.22,4.22-1.89,4.22-4.22,4.22Z"/>
        <path class="cls-7" d="m18.71,84.46c-2.33,0-4.22-1.89-4.22-4.22s1.89-4.22,4.22-4.22,4.22,1.89,4.22,4.22-1.89,4.22-4.22,4.22Z"/>
        <path class="cls-7" d="m10.67,73.33c-2.82,0-5.1-2.28-5.1-5.1s2.28-5.1,5.1-5.1,5.1,2.28,5.1,5.1-2.28,5.1-5.1,5.1Z"/>
        <path class="cls-7" d="m10.67,73.33c-2.82,0-5.1-2.28-5.1-5.1s2.28-5.1,5.1-5.1,5.1,2.28,5.1,5.1-2.28,5.1-5.1,5.1Z"/>
        <circle class="cls-7" cx="7.86" cy="54.05" r="5.38"/>
        <circle class="cls-7" cx="7.86" cy="54.05" r="5.38"/>
        <path class="cls-7" d="m10.67,44.97c-2.82,0-5.11-2.29-5.11-5.11s2.29-5.11,5.11-5.11,5.11,2.29,5.11,5.11-2.29,5.11-5.11,5.11Z"/>
        <path class="cls-7" d="m10.67,44.97c-2.82,0-5.11-2.29-5.11-5.11s2.29-5.11,5.11-5.11,5.11,2.29,5.11,5.11-2.29,5.11-5.11,5.11Z"/>
        <path class="cls-7" d="m18.71,32.08c-2.34,0-4.23-1.89-4.23-4.23s1.89-4.23,4.23-4.23,4.23,1.89,4.23,4.23-1.89,4.23-4.23,4.23Z"/>
        <path class="cls-7" d="m18.71,32.08c-2.34,0-4.23-1.89-4.23-4.23s1.89-4.23,4.23-4.23,4.23,1.89,4.23,4.23-1.89,4.23-4.23,4.23Z"/>
        <path class="cls-7" d="m30.72,22.45c-1.46,0-2.64-1.18-2.64-2.64s1.18-2.64,2.64-2.64,2.64,1.18,2.64,2.64-1.18,2.64-2.64,2.64Z"/>
        <path class="cls-7" d="m30.72,22.45c-1.46,0-2.64-1.18-2.64-2.64s1.18-2.64,2.64-2.64,2.64,1.18,2.64,2.64-1.18,2.64-2.64,2.64Z"/>
      </g>
    </g>
  </g>
</svg>